<svg width="90" height="70" viewBox="0 0 90 70" fill="none" xmlns="http://www.w3.org/2000/svg">
<path d="M45 1.5C56.8967 1.5 67.723 5.1725 75.6074 11.1797C83.4931 17.1878 88.5 25.5956 88.5 35C88.5 44.4044 83.4931 52.8122 75.6074 58.8203C67.723 64.8275 56.8967 68.5 45 68.5C33.1033 68.5 22.277 64.8275 14.3926 58.8203C6.50694 52.8122 1.5 44.4044 1.5 35C1.5 25.5956 6.50694 17.1878 14.3926 11.1797C22.277 5.1725 33.1033 1.5 45 1.5Z" fill="url(#paint0_linear_1_168)" stroke="white" stroke-width="3"/>
<path fill-rule="evenodd" clip-rule="evenodd" d="M44.0544 26.3695C41.6959 24.011 37.8719 24.011 35.5133 26.3695C33.1548 28.7281 33.1548 32.552 35.5133 34.9106L44.9972 44.3945L54.4811 34.9106C56.8397 32.552 56.8397 28.7281 54.4811 26.3695C52.1226 24.011 48.2986 24.011 45.94 26.3695C45.4193 26.8902 44.5751 26.8902 44.0544 26.3695ZM44.9972 23.666C41.5872 21.1102 36.7288 21.3828 33.6277 24.4839C30.2278 27.8838 30.2278 33.3962 33.6277 36.7962L43.1116 46.2801C43.5008 46.6693 43.984 46.9146 44.4891 47.0124C45.3256 47.1744 46.2311 46.9318 46.8828 46.2801L56.3667 36.7962C59.7667 33.3962 59.7667 27.8838 56.3667 24.4839C53.2657 21.3828 48.4073 21.1102 44.9972 23.666Z" fill="white"/>
<defs>
<linearGradient id="paint0_linear_1_168" x1="45" y1="3" x2="45" y2="67" gradientUnits="userSpaceOnUse">
<stop stop-color="#025D83"/>
<stop offset="0.333333" stop-color="#022B54"/>
<stop offset="0.796875" stop-color="#020631"/>
<stop offset="1" stop-color="#083C66"/>
</linearGradient>
</defs>
</svg>
